# xmcd CD database file
#
# Track frame offsets:
#	150
#	14182
#	23560
#	33815
#	45325
#	59465
#	71855
#	83770
#	91682
#	103392
#	114530
#	121867
#	135327
#	145017
#	156735
#	167240
#	177880
#	189557
#	200575
#	210852
#	224267
#	235505
#	246525
#	256240
#	263587
#	272850
#	284100
#	292332
#
# Disc length: 4042 seconds
#
# Revision: 2
# Processed by: cddbd v1.5.1PL0 Copyright (c) Steve Scherf et al.
# Submitted via: CDex 1.51
#
DISCID=a60fc81c
DTITLE=Les Paul and Mary Ford - How High the Moon #:2 - Bye Bye Blues! - Les and Mary
DYEAR=2003
DGENRE=Jazz
TTITLE0=Wabash Blues
TTITLE1=Bye Bye Blues
TTITLE2=Blues Stay Away From Me
TTITLE3=Deep In The Blues
TTITLE4=It's A Lonesome Old Town
TTITLE5=Walkin' And Whistlin' Blues
TTITLE6=St. Louis Blues
TTITLE7=Mammy's Boogie
TTITLE8=Franky And Johnny
TTITLE9=Don't Cry Baby
TTITLE10=Jazz Me Blues
TTITLE11=Smoke Rings
TTITLE12=Falling In Love With Love
TTITLE13=On The Sunny Side Of The Street
TTITLE14=Just One Of Those Things
TTITLE15=Twelfth Street Rag
TTITLE16=Lies
TTITLE17=Turista
TTITLE18=Swing Low, Sweet Chariot
TTITLE19=Nuevo Laredo
TTITLE20=The Best Things In Life Are Free
TTITLE21=Moritat - Theme From "Three Penny Opera"
TTITLE22=Some Of These Days
TTITLE23=Tico, Tico
TTITLE24=Baby, Won't You Please Come Home
TTITLE25=Dangerous Curves
TTITLE26=I'm Movin' On
TTITLE27=Farewell (For Just Awhile)
EXTD=YEAR: 2003
EXTT0=
EXTT1=
EXTT2=
EXTT3=
EXTT4=
EXTT5=
EXTT6=
EXTT7=
EXTT8=
EXTT9=
EXTT10=
EXTT11=
EXTT12=
EXTT13=
EXTT14=
EXTT15=
EXTT16=
EXTT17=
EXTT18=
EXTT19=
EXTT20=
EXTT21=
EXTT22=
EXTT23=
EXTT24=
EXTT25=
EXTT26=
EXTT27=
PLAYORDER=
